<svg xmlns="http://www.w3.org/2000/svg" version="1.1" xmlns:xlink="http://www.w3.org/1999/xlink" xmlns:svgjs="http://svgjs.dev/svgjs" viewBox="0 0 800 800" opacity="0.6"><defs><linearGradient x1="50%" y1="0%" x2="50%" y2="100%" id="ssscribble-grad"><stop stop-color="hsl(230, 55%, 50%)" stop-opacity="1" offset="0%"></stop><stop stop-color="hsl(230, 55%, 70%)" stop-opacity="1" offset="100%"></stop></linearGradient></defs><g fill="none" stroke-width="1.5" stroke="url(#ssscribble-grad)" stroke-linecap="round"><path d="M690.26 626.72C848.47 674.86 753.32 736.62 684.45 723.11 923.23 696.36 1038.81 647.57 907.3 584.45 661.64 534.09 531.41 501.94 585.98 512.08 753.88 577.37 880.43 694.99 891.34 843.46 792.57 975.49 640.54 1051.44 500.34 1034.89 381.08 935.36 309.77 790.17 269.04 671.34 244.05 649.44 221.32 740.11 188.46 903.71 155.6 1051.9 114.16 1099.22 77.18 1027.28 55.94 875.3 67.47 717.34 129.78 620.49 213.04 615.82 310.95 691.13 359.07 801.15 297.52 908.99 123.78 966.75 -87.17 962.53 -184.8 902.81 -93.54 804.44 117.89 694.02 215.18 579.23 70.14 482.34 -192.72 407.81 -262.91 347.12 -51.66 303.4 154 269.01 40.65 239.54 -241.05 210.22 -261.73 177.36 14.66 144.5 150.78 109.65 -43.01 77.15 -270.57 49.57 -198.26 33.5 65.89 37.24 199.44 54.81 65.9 97.58 -141.92 161.72 -200.51 221.51 -46.09 272.7 172.1 289.36 308.51 250.53 290.95 153.82 183.51 11.77 17.59 -184.85 92.76 -114.31 220.31 94.6 309.3 153.89 372.82 99.94 405.68 -48.22 438.54 -211.84 439.18 -295.87 412.17 -261.32 390.97 -129.81 361.99 34.07 358.42 157.69 410.79 198.35 533.5 151.89 715.77 54.08 906.23 -99.5 612.4 -88.49 647.48 52.16 889.52 165.92 1052.54 268.83 943.08 352.54 703 425.5 649.39 480.28 889.63 522.64 1096.12 560.25 966.66 593.86 690.26 626.72Q690.26 626.72 690.26 626.72" opacity="0.16"></path><path d="M656.26 551.68C787.42 590.82 791.78 595.23 588.66 554.8 751.82 523.61 953.03 485.45 985.9 453.24 824.47 447.2 607.89 472.2 488.3 540.1 515.58 644.62 638.91 775.93 760.25 905.43 833.8 994.4 821.69 1017.65 752.9 959.8 645.54 846.07 539.17 713.66 454.87 622.05 372.62 621.43 316.65 716.23 286.14 869.71 255.63 1009.81 252.01 1065.65 276.72 1017.33 303.47 889.51 354.33 736.98 408.81 618.49 424.72 569.14 386.58 596.36 266 675.25 97.63 780.75 -69.49 868.55 -136.76 915.61 -57.17 919.53 123.22 877.67 252.88 806.57 188.24 713.96 -40.33 619.15 -225.86 533.88 -171.84 451.18 64.27 383.94 193.77 331.39 34.52 281.8 -221.48 242.39 -227.73 211.87 27.91 181.36 188.06 161.19 52.94 153.23 -191.61 148.22 -227.87 159.95 -23.84 189.77 198.35 222.16 216.3 266.72 53.08 312.31 -127.49 336.38 -153.29 334.45 -21.86 290.54 181.16 203.5 330.03 79.53 376.38 -57.73 328.32 -168.4 238.39 -223 160.27 -196.04 96.57 -99.93 76.79 35.22 88.21 151.28 112.97 187.85 146.11 125.85 176.62 -14.22 207.13 -167.71 233.58 -256.36 266.36 -243.98 312.49 -140.62 387.78 9.15 504.36 145.26 635.36 225.49 775.54 229.62 870.62 172.43 871.3 74.71 766.24 -20.41 603.21 -84.95 511.77 -112.86 573.75 -94.07 786.1 -41.01 981.1 38.21 990.51 126.62 790.67 210.69 609.01 295.92 662.64 367.6 918.98 424.28 1065.87 478.84 911.9 521.16 656.26 551.68Q656.26 551.68 656.26 551.68" opacity="0.29"></path><path d="M622.26 386.63C725.88 421.05 840.18 418.98 557.67 395.25 597.75 386.92 783.33 385.51 933.91 402.44 935.11 445.37 786.12 518.16 597.42 620.62 459.98 735.39 433.42 851.04 490.21 940.68 596.89 979.83 688.9 956.22 738.64 870.4 755.61 754.94 734.46 642.18 696.66 578.12 647.91 595.93 604.74 692.72 576.57 835.71 548.4 967.23 536.58 1029.45 532.21 1002.7 516.89 900.93 486.8 762.09 421.01 634.21 322.47 550.78 184.07 530.97 33.97 566.92 -66.21 645.61 -80.09 733.96 20.42 806.85 172.2 858.27 287.8 872.07 257.27 853 77.37 808.03 -133.46 746 -194.19 679.32 -48 605.71 167.3 538.92 215.19 483.75 25.67 428.56 -200.18 386.17 -193.73 358 128.69 323.52 -151.09 329.1 -108.64 361.67 121.21 379.55 268.93 395.19 236.39 396.76 70.43 372.43 -80.23 318.21 -114.99 229.88 -22.27 120.07 141.25 -1.66 294.69 -109.69 403.69 -174.97 441.61 -180.44 432.5 -117.67 388.55 -10.45 344.82 112.36 320.49 203.27 296.02 219.18 297.55 151.27 325.71 19.77 353.88 -123.22 407.35 -214.32 484.95 -221.29 562.4 -146.37 657.36 -17.59 750.13 118.51 808.05 224.99 816.52 273.87 750.93 264.05 640.9 203.74 517.81 121.48 462 43.63 533.68 -21.91 717.75 -54.27 913.04 -53.78 974.9 -27.31 852.44 20.48 643.22 77.62 559.82 144.15 699.06 207.42 941.35 261.24 1027.17 315.97 856.49 358.47 622.26 386.63Q622.26 386.63 622.26 386.63" opacity="0.31"></path><path d="M588.26 229.51C664.67 263.54 883.81 298.47 591.38 318.73 509.33 344.7 598.66 384.95 765.49 445.22 896.39 521.36 899.73 616.3 790.54 721.81 621.24 818.56 473.63 896.88 389.55 937.02 372.56 929.45 407.46 871.01 459.07 772.09 523.96 665.9 568.85 577.42 587.58 539.79 601.49 572.88 593.88 669.57 568.06 801.71 542.24 924.16 499.44 990.64 436.83 982.94 369.41 907.64 277.55 788.84 167.92 663.26 32.85 529.91 70.89 560.26 261.62 662.06 336.97 732.35 303.02 781.88 145.24 806.17 -48.47 811.37 -160.96 794.49 -97.82 763.56 89.07 722.11 247.57 677.13 219.2 635.22 15.65 591.17 -177.06 554.85 -159.73 529.03 145.01 496.16 -61.51 476.68 -154.13 472.39 10.08 458.59 212.38 432.95 315.74 387.97 272.54 323.89 134.28 237.3 0.71 133.17 -68.57 29.4 -37.38 -64.95 62.19 -128.71 201.09 -146.51 328.67 -111.1 422.54 -25.97 490.6 80.67 527.12 184.78 548.29 250.12 559.86 247.89 574.68 176.2 600.5 53.76 626.32 -78.38 661.92 -169.86 699.04 -193.01 726.56 -145.42 737.01 -42.26 713.69 82.85 664.58 200.7 579.52 282.3 480.41 316.77 420.62 303.51 426.5 255.81 529.63 192.9 697.04 121.23 865.91 63.36 936 27 859.53 6.53 680.38 8.8 535.08 27.57 559.04 57.28 748.92 93.8 952.27 130.44 980.2 169.69 800.6 203.69 588.26 229.51Q588.26 229.51 588.26 229.51" opacity="0.97"></path><path d="M554.21 173.54C528.02 197.01 681.44 221.15 874.43 247.5 955.5 276.3 860.65 311.79 670.47 357.39 509.24 409.96 475.47 476.32 564.15 555.96 716.63 638.34 835.04 725.17 867.37 805.54 809.61 865.01 690.2 896.7 558.53 889.75 434.87 846.55 351.7 768.85 307.11 671.22 291.15 582.82 292.72 520.82 294.95 507.22 303.35 552.14 298.57 646.73 275.1 767.72 251.63 880.66 210.57 949.29 157.91 957.7 111.41 907.89 67.14 813.27 42.42 699.97 46.34 589.6 90.85 505.48 178.34 458.16 273.83 449.85 359.54 474.18 386.53 517.98 323.45 577.28 177.2 633.48 0.29 677.62 -112.83 714.75 -100.11 733.94 43.91 737.14 216.88 732.17 298.37 716.72 208.24 695.49 6.19 671.75 -151.97 646.98 -125.78 623.51 64.38 600.04 250.16 578.97 281.97 558.45 143.47 535.41 -43.73 508.16 -137.49 472.45 -79.64 428.58 88.88 370.73 260.6 297.43 355.12 217.11 336.06 127.21 240.84 37.15 66.97 -63.48 45.53 -51.28 164.51 73.41 262.34 169.5 346.64 250.77 410.12 291.51 470.8 274.05 512.38 200.66 535.85 87.72 559.33 -33.26 563.59 -123.09 547.18 -158.96 527.98 -136.3 486.38 -60.94 429.23 44.65 385.18 159.49 355.3 258.24 367.93 325.87 436.92 357.27 563.38 353.41 721.62 324.71 847.63 275.1 894.55 221.97 824.5 175.76 677.24 132.3 529.73 104.59 489.05 92.69 599.98 87.78 800.54 94.98 948.14 110.45 925.44 128.36 744.46 150.06 554.26 173.53Q554.21 173.54 554.21 173.54" opacity="0.42"></path><path d="M520.81 251.81C486.83 272.93 605.55 302.3 784.42 339.81 908.25 378.42 894.88 426.82 763.22 484.76 586.53 543.81 460.28 610.63 432.65 680.75 502.9 743.73 622.98 799.52 734.04 838.87 807.02 855.34 813.76 844.23 766.81 802.39 679.48 739.48 579.56 658.56 488.37 574.17 400.35 509 333.81 473.3 286.89 480.25 245 533.44 215.07 624.05 193.95 733.61 167.16 870.99 184.69 865.74 250.15 737.81 304.74 634.23 369.87 540.02 424.64 467.71 439.03 421.74 401.96 404.74 301.29 411.08 162.55 438.5 17.41 475.34 -74.82 512.66 -69.18 553.78 38.11 586.01 199.32 606.62 315.49 624.4 316.84 630.5 184.85 626.12 -2.16 620.26 -125.16 606.38 -91.18 585.26 77.23 564.14 256.66 536.77 326.98 502.79 249.85 467.34 86.62 422.81 -55.04 368.42 -100.81 311.21 -25.5 244.19 121.64 170.51 279.68 100.62 381.47 33.46 405.74 -21.65 358.14 -55.69 272 -63.74 185.23 -39.77 107.47 10.52 66.06 85.78 58.48 173.88 73.84 251.99 106.88 308.65 143.77 327.08 186.25 297.66 220.76 224.66 241.88 121.66 263.01 12.1 269.75 -74.24 267.1 -119.3 270.06 -118.11 275.45 -70.4 296.7 10.25 340.89 110.12 417.08 209.99 527.4 294.9 646.73 358.74 763.2 394.9 838.49 406.12 841.91 394.46 765.17 368.99 629.12 338.58 503.97 301.02 447.6 268.98 508.86 246.54 753.64 220.23 776.81 224.74 520.81 251.81Q520.81 251.81 520.81 251.81" opacity="0.46"></path><path d="M486.2 418.2C448.27 436.98 535.14 465.3 689.38 501.86 831.71 538.09 884.45 581.6 830.25 629.77 696.61 674.77 545.01 720 433.05 760.24 388.98 789.76 418.03 806.37 493.13 804.6 593.74 785.58 680.18 745.62 734.26 686.64 758.53 620.8 747.53 550.43 714.43 487.47 664.29 447.58 610.89 435.85 564.55 459.07 515.71 516.96 480.26 601.88 461.48 699.77 442.09 825.89 475.46 861.79 502.67 770.57 503.23 684 483.31 594.4 430.1 513.19 347.08 444.58 233.69 395.82 108.46 366.88 8.75 356.27 -42.55 360.04 -18.03 372.13 74.36 393.48 209.12 414.89 329 431.88 369.43 450.75 306.01 461.7 156.43 463.11 -5.05 464.47 -95.72 456.08 -57.79 437.3 88.18 418.52 255.74 390.24 353.71 353.47 337.16 316.64 223.86 271.54 79.83 220.13 -33.43 170.6 -61.88 118.26 -4.09 67.97 116.65 26.94 253.57 -3.78 366.02 -17.78 437.74 -13.45 456.86 13.04 437.14 62.09 386.45 123.75 329.03 196.52 280.66 269.32 233.4 325.15 205.22 357.72 195.55 357.12 189.29 319.14 196.58 248.45 215.36 155.77 234.13 57.87 263.5 -23.23 305.17 -73.87 350.24 -89.84 412.57 -67.43 492.37 -13.78 573.28 62.94 661.63 150.14 741.27 235.54 789.95 314.08 797.81 376.29 750.72 419.93 662.9 446.3 548.24 456.65 447.02 456.07 408.76 444.78 454.02 430.47 581.03 418.01 800.83 397.71 714.13 395.24 486.25 418.19Q486.2 418.2 486.2 418.2" opacity="0.74"></path><path d="M452.25 573.63C472.94 606.49 738.24 658.27 845.01 711.71 669.61 748.08 428.55 753.97 342.82 705.57 426.75 623.45 559.31 508.99 633.75 415.98 673.4 408.9 658.2 502.14 625.34 665.76 592.48 813.93 545.07 858.1 448.47 791.98 317.08 652.86 133.23 502.67 6.23 391.2 48.9 323.22 255.1 300.09 406.41 294.54 275.56 304.43 -3.05 299.92 -23.74 267.05 252.65 234.19 393.28 176.09 234.63 109.26 8.55 57.86 5.18 29.7 180.08 54.61 393.82 123.02 502.34 238.35 522.46 353.39 489.54 395.42 469.2 337.93 502.06 189.76 534.92 26.14 617.87 -53.77 707.74 -22.6 744.57 94.49 687.33 243.8 516.66 368.99 384.83 460.46 423.06 505.85 673.23 526.43 855.96 529.94 728.65 540.77 452.25 573.63Q452.25 573.63 452.25 573.63" opacity="0.29"></path><path d="M418.21 626.06C517.37 665.29 675.06 657.72 400.48 564.77 302.81 447.2 422.44 439.61 407.69 631.72 379.53 763.24 299.02 822.04 186.1 797.19 97.69 706.72 48.72 583.94 111.98 469.5 256.17 368.61 413.25 300.26 416.9 257.8 226.32 228.04 3.84 203.86 10.21 175.69 333.36 132.78 101.28 104.83 41.69 180.99 172.95 258.52 332.35 351.42 446.91 421.24 538.45 425.46 587.81 355.27 615.98 223.77 644.15 80.77 648.47 -6.08 605.75 -12.31 540.03 51.81 424.57 161.84 330.2 276.26 356.32 386.95 526.88 469.27 749.44 523.63 818.91 566.35 652.48 597.89 418.26 626.05Q418.21 626.06 418.21 626.06" opacity="0.37"></path><path d="M384.21 544.39C358.02 567.86 503.97 570 679.92 550.09 772.51 526.84 721.13 479.71 590.73 417.68 432.33 368.64 316.91 332.45 254.41 332.34 218.84 381.47 200.47 476.74 177 597.72 153.52 710.66 127.17 775.84 122.07 782.7 143.89 739.93 222.69 660.23 350.32 570.53 449.95 474.46 476.43 393.19 366.64 333.59 173.48 279.28 18.02 240.91 44.21 217.44 234.38 193.97 419.53 187.62 464.5 201.25 359.92 220.17 204.4 264.81 100.79 330.11 68.22 389.05 113.96 443.85 184.96 469.42 274.88 445.36 340.67 370.69 364.14 257.77 377.11 93.89 282.44 66.91 341.18 177.26 475.54 270.05 655.96 353.82 777.76 417.75 750.05 478.33 574.45 520.91 384.26 544.38Q384.21 544.39 384.21 544.39" opacity="0.49"></path><path d="M350.48 377C312.2 395.78 393.51 393.79 530.01 375.09 696.09 344.43 601.85 290.52 476.77 322.07 395.68 380.72 343.05 465.78 324.27 563.67 305.49 656.37 322.34 720.06 370.89 746.93 417.5 742.43 480.06 707.41 523.7 656.18 510.8 591.93 427.57 528.58 279.39 476.64 129.12 424.1 40.2 386.23 78.48 367.45 224.65 348.67 390.51 350.76 490.04 370.77 494.31 390.17 420.45 424.21 324.52 463.85 223.27 490.47 162.3 505.57 142.42 496.3 139.26 455.67 154.22 384.37 173 291.67 191.77 193.78 212.59 116.33 248.3 71.45 300.72 55.31 390.99 71.93 516.85 109.45 637.39 162.78 731.17 219.95 740.66 269.21 654.9 320.46 496.65 358.22 350.48 377Q350.48 377 350.48 377" opacity="0.71"></path><path d="M316.21 223.32C309.84 251.49 502.64 245.78 638.44 245.15 680.61 285.71 627.77 386.74 599.61 529.72 571.44 661.25 573.28 713.04 494.19 693.19 321.47 633.23 105.84 565 112.21 536.84 346.44 508.67 526.72 525.89 529.65 548.94 419.01 531.88 337.97 457.25 366.14 325.72 394.3 182.74 526.34 104.54 673.9 100.9 707.89 138.44 550.44 195.15 316.21 223.32Q316.21 223.32 316.21 223.32" opacity="0.99"></path><path d="M282.26 174.4C336.41 211.96 574.93 313.12 537.38 495.71 499.82 658.5 200.41 662.54 146.26 624.98 461.35 587.43 579.01 522.5 616.57 359.71 654.12 177.12 597.35 136.85 282.26 174.4Q282.26 174.4 282.26 174.4" opacity="0.52"></path></g></svg>